<svg xmlns="http://www.w3.org/2000/svg" viewBox="0 0 1800 1050" role="img" aria-labelledby="title desc">
  <title id="title">Editorial desk with books and writing materials</title>
  <desc id="desc">A formal editorial desk scene used as the homepage visual for Santy Gomez's personal website.</desc>
  <defs>
    <linearGradient id="wall" x1="0" x2="1" y1="0" y2="1">
      <stop offset="0" stop-color="#f5f7f2"/>
      <stop offset="0.55" stop-color="#dfe5df"/>
      <stop offset="1" stop-color="#c7d1cc"/>
    </linearGradient>
    <linearGradient id="desk" x1="0" x2="1">
      <stop offset="0" stop-color="#17201d"/>
      <stop offset="1" stop-color="#2f3732"/>
    </linearGradient>
    <linearGradient id="paper" x1="0" x2="1" y1="0" y2="1">
      <stop offset="0" stop-color="#ffffff"/>
      <stop offset="1" stop-color="#e8ebe4"/>
    </linearGradient>
    <filter id="shadow" x="-20%" y="-20%" width="140%" height="140%">
      <feDropShadow dx="0" dy="18" stdDeviation="18" flood-color="#16201d" flood-opacity="0.25"/>
    </filter>
  </defs>
  <rect width="1800" height="1050" fill="url(#wall)"/>
  <rect x="0" y="590" width="1800" height="460" fill="url(#desk)"/>
  <rect x="980" y="95" width="390" height="450" rx="10" fill="#eef2ed" opacity="0.74"/>
  <rect x="1022" y="135" width="306" height="370" rx="4" fill="#f9fbf7"/>
  <line x1="1175" y1="95" x2="1175" y2="545" stroke="#bcc7c0" stroke-width="10"/>
  <rect x="1460" y="290" width="28" height="330" rx="8" fill="#a97828"/>
  <rect x="1395" y="265" width="230" height="42" rx="20" fill="#be9446"/>
  <circle cx="1474" cy="638" r="62" fill="#be9446"/>
  <rect x="1425" y="626" width="250" height="18" rx="9" fill="#a97828"/>
  <g filter="url(#shadow)">
    <rect x="210" y="435" width="380" height="74" rx="16" fill="#1f5f4a"/>
    <rect x="182" y="509" width="420" height="76" rx="16" fill="#252a28"/>
    <rect x="150" y="586" width="460" height="78" rx="16" fill="#7a2548"/>
    <rect x="122" y="664" width="510" height="82" rx="16" fill="#171c1a"/>
    <line x1="245" y1="461" x2="570" y2="461" stroke="#d1b16b" stroke-width="5" opacity="0.75"/>
    <line x1="220" y1="538" x2="580" y2="538" stroke="#d1b16b" stroke-width="5" opacity="0.55"/>
    <line x1="196" y1="615" x2="590" y2="615" stroke="#d1b16b" stroke-width="5" opacity="0.45"/>
  </g>
  <g filter="url(#shadow)">
    <path d="M690 660c140-56 300-58 475 0v225c-165-42-318-42-475 0z" fill="url(#paper)"/>
    <path d="M1165 660c120-42 250-44 388 0v215c-128-34-254-35-388 0z" fill="#f7f8f5"/>
    <path d="M1165 660v215" stroke="#c2c9c0" stroke-width="4"/>
    <path d="M690 660v225" stroke="#c2c9c0" stroke-width="4"/>
    <path d="M728 706c92-20 187-20 286 0M728 742c92-18 190-18 296 0M728 778c92-16 190-17 296 0" stroke="#aab3aa" stroke-width="5" opacity="0.55"/>
  </g>
  <g transform="rotate(-12 1100 760)" filter="url(#shadow)">
    <rect x="990" y="742" width="318" height="24" rx="12" fill="#151a18"/>
    <rect x="1255" y="739" width="58" height="30" rx="10" fill="#a97828"/>
    <polygon points="1312,742 1370,754 1312,769" fill="#111513"/>
    <polygon points="1342,749 1370,754 1342,759" fill="#d9c48d"/>
  </g>
  <g filter="url(#shadow)">
    <circle cx="1088" cy="414" r="115" fill="#1f5f4a"/>
    <path d="M994 398c72-48 146-45 223 7M1010 456c69 24 142 26 217 4M1077 303c-18 70-18 145 0 225M1138 307c22 76 23 146 5 216" fill="none" stroke="#d9c48d" stroke-width="7" opacity="0.75"/>
    <circle cx="1088" cy="414" r="128" fill="none" stroke="#a97828" stroke-width="10"/>
    <path d="M1088 542v95M1015 637h146" stroke="#a97828" stroke-width="11" stroke-linecap="round"/>
  </g>
  <g filter="url(#shadow)">
    <rect x="1265" y="360" width="62" height="265" rx="8" fill="#1f5f4a"/>
    <rect x="1338" y="325" width="62" height="300" rx="8" fill="#151a18"/>
    <rect x="1411" y="386" width="62" height="239" rx="8" fill="#6e3540"/>
    <rect x="1484" y="345" width="62" height="280" rx="8" fill="#2b2f2b"/>
    <line x1="1278" y1="402" x2="1314" y2="402" stroke="#d1b16b" stroke-width="5"/>
    <line x1="1351" y1="370" x2="1387" y2="370" stroke="#d1b16b" stroke-width="5"/>
    <line x1="1424" y1="428" x2="1459" y2="428" stroke="#d1b16b" stroke-width="5"/>
    <line x1="1497" y1="387" x2="1533" y2="387" stroke="#d1b16b" stroke-width="5"/>
  </g>
  <g opacity="0.85">
    <rect x="1332" y="720" width="330" height="190" rx="12" fill="#f8faf7"/>
    <path d="M1360 765h282M1360 800h282M1360 835h282M1360 870h220" stroke="#909c93" stroke-width="4"/>
    <path d="M1370 746c22-16 42-16 60 0s38 16 60 0 42-16 60 0 38 16 60 0" stroke="#1f5f4a" stroke-width="5" fill="none"/>
  </g>
  <rect width="1800" height="1050" fill="#111715" opacity="0.18"/>
</svg>
